# xmcd
#
# Track frame offsets: 
#        150
#        16979
#        37536
#        54773
#        73829
#        89852
#        106483
#        123331
#        139716
#        153552
#        170802
#
# Disc length: 2499 seconds
#
# Revision: 0
# Processed by: cddbd v1.5.2PL0 Copyright (c) Steve Scherf et al.
# Submitted via: ExactAudioCopy v0.95b4
#
DISCID=9109c10b
DTITLE=HIGH VALLEY - HIGH VALLEY
DYEAR=2010
DGENRE=COUNTRY
TTITLE0=I WILL STAND BY YOU
TTITLE1=ON THE COMBINE
TTITLE2=YOU'LL FIND YOUR WAY
TTITLE3=SOMEBODY LIKE ME
TTITLE4=ONLY WAY HE KNEW HOW
TTITLE5=WHEN YOU CALL MY NAME
TTITLE6=MY WAY BACK
TTITLE7=CALL ME OLD FASHIONED
TTITLE8=EXACTLY WHAT I DIDN'T WANT TO HAPPEN
TTITLE9=PLASTIC JESUS
TTITLE10=THE LAST THING YOU DO
EXTD=
EXTT0=
EXTT1=
EXTT2=
EXTT3=
EXTT4=
EXTT5=
EXTT6=
EXTT7=
EXTT8=
EXTT9=
EXTT10=
PLAYORDER=
